<svg id="Layer_1" data-name="Layer 1" xmlns="http://www.w3.org/2000/svg" viewBox="0 0 200.43 196.6"><defs><style>.cls-1{fill:#cb4521;}.cls-2{fill:#414042;}</style></defs><title>logo</title><path class="cls-1" d="M20.23,44.82a.42.42,0,0,1-.3-.21c-1-1-1.83-3.16,1.18-4.52a1.32,1.32,0,0,1,.41-.09,39.7,39.7,0,0,0,7.68,1.25,66.3,66.3,0,0,0,8.1,0c2.88-.15,5.79-.21,8.69-.47A139.5,139.5,0,0,0,64,38c6-1.35,12-3.57,15.75-8.18s5.84-11.33,3.43-16.44a13,13,0,0,0-6.1-6A22.15,22.15,0,0,0,68.16,5a14.15,14.15,0,0,0-8.4,2.51,24.73,24.73,0,0,0-6.53,6.72C49.72,19.51,48.28,26,48,32.46A93.52,93.52,0,0,0,49.45,51.7c1,6.3,2.42,12.4,3.69,18.37s2.29,11.81,3.07,17.37,1.28,10.87,1.68,15.79l.86,11.32.32,4.16a92.36,92.36,0,0,1-.69,13.12c-.63,4.65-1.78,5.86-2.08,5.26s-.39-2.74-.68-5.48c0,.28-.24-3-.66-6.35s-.9-6.8-.9-6.81l-.37-4.88c-.62-8.17-1.22-17.87-2.86-28.52C50,79.7,49,74.16,47.68,68.34S45.1,56.41,44.15,50a87.61,87.61,0,0,1-1-20c.56-6.86,2.51-14.15,7-20.1a27.87,27.87,0,0,1,8.33-7.47A19,19,0,0,1,69.9.12a27.26,27.26,0,0,1,10.72,3.5,17.22,17.22,0,0,1,7.6,8.88A18.57,18.57,0,0,1,88.35,24,25.19,25.19,0,0,1,83,33.66a26,26,0,0,1-8.76,6.26,48.66,48.66,0,0,1-9.62,3,142.43,142.43,0,0,1-18.48,2.8c-1.5.12-3,.21-4.47.28l-4.28.19a72.06,72.06,0,0,1-8.57,0,44.08,44.08,0,0,1-8.63-1.41"/><path class="cls-1" d="M79.76,9.86a.31.31,0,0,1,.14-.27,3.89,3.89,0,0,1,1.85-1.25c.8-.19,1.83,0,2.81,1.54a1.53,1.53,0,0,1,.17.46A23.59,23.59,0,0,1,82,19.11a37.39,37.39,0,0,1-6.61,8.8,57.13,57.13,0,0,1-7.53,6.39c-2.45,1.7-4.06,2.58-4,2.59s-1.76.91-4.17,1.92a41.93,41.93,0,0,1-8.38,2.57c-4.56.91-6,.55-5.66,0s2.46-1.51,4.94-2.68c-.29,0,2.75-1.2,5.6-2.83s5.7-3.6,5.68-3.59,1.25-.72,3.18-2.07a52.18,52.18,0,0,0,6.77-5.73A32.94,32.94,0,0,0,77.6,16.8a18.42,18.42,0,0,0,2.16-6.94"/><path class="cls-1" d="M41.94,45.42a.39.39,0,0,1,.1-.33c.65-1.15,2.38-2.82,4.66-.32a1.39,1.39,0,0,1,.23.37c0,.17.15,3.47.58,8.16.32,3.42.83,7.18,1.51,11.21s1.41,8.36,2,12.78,1.19,8.81,2,13.12a115,115,0,0,1,1.68,13.09c.33,4.2.49,8.16.63,11.73l.42,9a24.19,24.19,0,0,1-.34,4.62l-.34,1.32-.42,1.41a10.6,10.6,0,0,1-.84,2c-.35.64-.73,1.24-1.09,1.81l-.26.43-.11.12a2.67,2.67,0,0,0-.23.29,2.53,2.53,0,0,0-.38.92,1.53,1.53,0,0,0,0,.3.42.42,0,0,0,.16.09,1.12,1.12,0,0,0,.38.11,5.08,5.08,0,0,0,.78,0l.41,0c.12,0,.38-.06.54-.09.74-.12,1.33-.2,1.77-.23.87-.07,1.18.09,1.05.4a4.52,4.52,0,0,1-1.57,1.33l-.71.41a3.35,3.35,0,0,1-.43.22l-.64.28a10,10,0,0,1-2.93.79c.09,0-.13,0-.59.06H49c-.17,0-.45,0-.47-.18l-.17-.59a7,7,0,0,1-.33-3,9.83,9.83,0,0,1,.5-2c.11-.31.31-.79.38-1l.26-.63a19.93,19.93,0,0,0,.81-2.14,5.59,5.59,0,0,0,.17-.87l.15-1c.18-1.23.23-2,.23-2l.11-1c0-.31,0-.69.07-1.13v-.73l0-1c-.36-5.21-.44-12.59-1.07-20.56A112.38,112.38,0,0,0,48,90.72c-.78-4.34-1.37-8.8-2-13.09s-1.3-8.45-2-12.46-1.21-7.9-1.54-11.39c-.45-4.86-.58-8.19-.6-8.36"/><path class="cls-1" d="M61.66,70.59s0,0,.18,0a4.49,4.49,0,0,1,3.42,3.18.8.8,0,0,1,0,.27c-.06.06-1.06,1.14-2.65,2.55a57.81,57.81,0,0,1-6.06,4.67c-1.16.78-2.26,1.48-3.5,2.17A32.14,32.14,0,0,1,49.73,85c-2,.76-3.23,1.15-3.23,1.16s-3.43.55-5.84.7c-2,.25-2.81.1-2.84-.44s.76-1.4,1.89-2.15a14.93,14.93,0,0,1,2.66-1.52l2.82-1.4s1.22-.39,2.92-1.06a27.54,27.54,0,0,0,2.74-1.3c.92-.51,2-1.23,3-1.91a49.56,49.56,0,0,0,7.76-6.44"/><path class="cls-1" d="M37.27,86.77l.1-.06c.28-.18.74-.53,1.32-1a9.29,9.29,0,0,1,2.53-1.49.71.71,0,0,1,.24,0,3.82,3.82,0,0,1,.71,1.63A7.23,7.23,0,0,1,42,88.75a27.33,27.33,0,0,1-.9,2.92,5.79,5.79,0,0,1-1.72,1,1.77,1.77,0,0,1-2.59-.94,9.51,9.51,0,0,1-.36-1.81,21.6,21.6,0,0,0,.71-2.32,4,4,0,0,0,.12-.85Z"/><path class="cls-1" d="M61.29,71.86c.06-.09.08-.12.26-.17a3.94,3.94,0,0,1,2.21-.21c.79.21,1.62.87,1.75,2.69a1.55,1.55,0,0,1-.08.48,32.76,32.76,0,0,1-6.05,6.55l-1,.81c-2.28,1.88-3.73,2.91-3.72,2.92a104.3,104.3,0,0,1-11.39,6.5c-4.17,2-5.67,2-5.47,1.42s2-2.1,4.13-3.84c-.27.11,2.38-1.86,5-4l5.26-4.42s1.2-.88,3-2.39l.9-.75a27.49,27.49,0,0,0,5.17-5.57"/><path class="cls-1" d="M73,68.23a.33.33,0,0,1-.27.12,3.86,3.86,0,0,1-2.21,0c-.77-.28-1.54-1-1.47-2.85a1.51,1.51,0,0,1,.13-.48,15.46,15.46,0,0,1,2.06-2,13.51,13.51,0,0,1,6.51-2.82,18.08,18.08,0,0,1,9.6,1.3,21.53,21.53,0,0,1,4.47,2.45,16.5,16.5,0,0,1,3.84,3.89c2.13,3,3.13,6.51,4,9.7.42,1.61.89,3.15,1.33,4.91s.74,3.45,1,5.2c.51,3.5.73,7,1,10.37s.54,6.92.66,10.36.13,6.91,0,10.34A25.73,25.73,0,0,1,101,129.09a18.72,18.72,0,0,1-3.11,4.46,15.55,15.55,0,0,1-2.05,1.79c-.66.5-1.35.95-2,1.39a21.06,21.06,0,0,1-9.12,3.19,17.58,17.58,0,0,1-8.79-1.48,21.06,21.06,0,0,1-3.45-1.94c-.52-.35-1-.72-1.48-1.09l-.34-.28-.2-.18a14.7,14.7,0,0,1-2.46-2.62c-.49-.65-.73-1-.73-1a21,21,0,0,1-2-4.51,18.43,18.43,0,0,1-.64-9.15,11.71,11.71,0,0,1,1.71-4.52c.54-.73.85-.83,1-.52.29.61-.13,2.82,0,5.39a21.48,21.48,0,0,0,1.23,5.69,19.8,19.8,0,0,0,3.14,5.3s.2.28.58.76c.2.23.44.52.71.8a5.89,5.89,0,0,0,.44.41l.3.26.54.44a13.74,13.74,0,0,0,11.28,3.12,17.76,17.76,0,0,0,6.73-3c.28-.18.54-.39.82-.59l.68-.57A11.62,11.62,0,0,0,95,129.29a15.07,15.07,0,0,0,2-3.42,20.3,20.3,0,0,0,1.24-4,26.41,26.41,0,0,0,.44-4.45c.13-3.17.09-6.44,0-9.73s-.37-6.59-.66-10-.51-6.69-1-9.86c-.25-1.58-.56-3.13-.94-4.66l-1.29-4.69a24.37,24.37,0,0,0-3.31-8,11.38,11.38,0,0,0-2.68-2.64,16.32,16.32,0,0,0-3.39-1.82,13.17,13.17,0,0,0-6.88-1A8.62,8.62,0,0,0,73,68.23"/><path class="cls-1" d="M80.13,65.52a.39.39,0,0,1-.21-.25,3.59,3.59,0,0,1-.41-2.22c.17-.81.78-1.63,2.53-1.95a1.58,1.58,0,0,1,.47,0,25.21,25.21,0,0,1,2.26,1.36,23,23,0,0,1,4.89,4.39,27.31,27.31,0,0,1,5,9.67,66.6,66.6,0,0,1,2.59,11.36,80.49,80.49,0,0,1,.67,12c0,2-.14,4-.25,5.82l-.2,5.53a54.23,54.23,0,0,1-1.25,10.54,25.71,25.71,0,0,1-1.54,4.61,19.18,19.18,0,0,1-1.05,2c-.19.32-.39.63-.59.92s-.24.36-.38.53A13.18,13.18,0,0,1,90,132.59a11.15,11.15,0,0,1-1.25.77,15,15,0,0,1-5,1.23,24.14,24.14,0,0,1-9-1,8.66,8.66,0,0,1-4.31-2.36c-.6-.81-.36-1.17-.07-1.11s.8.21,1.68.39a24.87,24.87,0,0,0,3.34.39,37.3,37.3,0,0,0,6-.27,16,16,0,0,0,4-1.11,6.92,6.92,0,0,0,1.43-.82,4.44,4.44,0,0,0,.56-.41,7.92,7.92,0,0,0,.7-.71c.13-.15.28-.31.42-.5a8,8,0,0,0,.49-.68,18.35,18.35,0,0,0,2.56-6.58,57.81,57.81,0,0,0,1-9.48c.06-1.75.09-3.57.2-5.51s.19-3.66.21-5.51a73.78,73.78,0,0,0-.67-11A60.9,60.9,0,0,0,89.85,78a22.3,22.3,0,0,0-4-7.9,19.16,19.16,0,0,0-5.69-4.55"/><path class="cls-1" d="M116.23,93.06a.44.44,0,0,1,0-.35,3.08,3.08,0,0,1,1.17-2c.72-.45,1.71-.49,3.16.26a1.2,1.2,0,0,1,.33.29,20.93,20.93,0,0,1,.87,2.59l1.34,5.74c.59,2.53,1.62,6.68,2.15,8.67l1.21,4.41.91,4.33c.5,2.38,1.44,5.52,1.93,8.23.92,4.61.22,6.11-.24,5.66s-1.27-2.49-2.44-5c.07.26-1.26-2.68-2.67-5.91s-2.44-6.61-2.45-6.63l-1.06-3.85c-.52-1.94-1.59-6.21-2.2-8.8L116.9,95a16.12,16.12,0,0,0-.67-2"/><path class="cls-1" d="M96.15,59.16c-.08-.06-.11-.08-.17-.26a4.1,4.1,0,0,1-.26-2.19c.19-.79.8-1.66,2.65-1.82a1.6,1.6,0,0,1,.49.07,20.25,20.25,0,0,1,2.19,1.64,29.89,29.89,0,0,1,4.33,4.73c1,1.29,2.4,3.47,3,4.53l2.4,4s.81,1.62,2.07,3.92a50.43,50.43,0,0,1,3.27,8.08c2.83,8.69.31,5.81-2.57,1,.07.3-1.53-2.65-3.36-5.39-.46-.68-.93-1.35-1.39-1.95l-1.35-1.85-1.26-1.82-2-3.36c-.59-1-1.92-3-2.8-4.16a19.79,19.79,0,0,0-5.24-5.16"/><path class="cls-1" d="M139.39,49.91a.78.78,0,0,1,.47,0,2.44,2.44,0,0,1,1.93,1.65c.19.84-.39,1.73-1,2.92a.83.83,0,0,1-.19.25,5.16,5.16,0,0,0-1.52.67,16.85,16.85,0,0,0-3.77,3.39,80.33,80.33,0,0,0-8.05,12.12l-2.09,3.5c-.65,1.15-1.28,2.33-1.88,3.55-1.2,2.44-2.28,5-3.27,7.66-2,5.31-3.55,10.92-5.08,16.51s-2.88,11.1-4.15,16.37l-3.58,14.85-1.65,6.44-1.33,4.87c-.73,2.59-1.36,4.18-1.35,4.18a28,28,0,0,1-2.34,4.22,17.57,17.57,0,0,1-3.06,3.53A11.31,11.31,0,0,1,93.29,159a8.08,8.08,0,0,1-5,.1c-.86-.32-1-.6-.78-.82.5-.44,2.77-.6,4.77-1.87-.13,0,.45-.26,1.24-.94a11.79,11.79,0,0,0,2.5-3.06,26.64,26.64,0,0,0,2.39-5.86l.34-1,.37-1.17.52-1.83c1.85-6.56,4-15.8,6.54-26.21,1.25-5.19,2.61-10.69,4.13-16.22s3.12-11.19,5.18-16.65c1-2.73,2.17-5.41,3.45-8,.64-1.28,1.32-2.55,2-3.77l2.08-3.46a82.64,82.64,0,0,1,8.48-12.71,21.69,21.69,0,0,1,4.95-4.39,10.85,10.85,0,0,1,2.88-1.25"/><path class="cls-1" d="M139.06,50.55a.48.48,0,0,1,.39,0,2.9,2.9,0,0,1,2.13,1.1c.43.74.41,1.72-.19,3.15a1.15,1.15,0,0,1-.22.32,15.85,15.85,0,0,0-5.62,4.37,60.71,60.71,0,0,0-7.65,12.88c-.57,1.26-1.08,2.45-1.56,3.77l-1.47,4.07c-1,2.75-1.9,5.55-2.82,8.42-1.85,5.71-3.51,11.58-5,17.41-.76,2.93-1.44,5.77-2.08,8.68s-1.4,5.77-2.08,8.51c-1.4,5.49-2.45,10.58-3.36,15.43-.48,2.42-1,4.75-1.62,6.91-.31,1.09-.64,2.13-1,3.13l-.56,1.45-.25.62a32.26,32.26,0,0,1-2,4s-.29.44-.83,1.13q-.39.53-1,1.2a10.23,10.23,0,0,1-1.57,1.5A16.14,16.14,0,0,1,92,162.16a5.1,5.1,0,0,1-3.3-.87,3.24,3.24,0,0,1-1.19-1.71c-.22-.94,0-1.21.31-1.08s.76.64,1.4.93a3.47,3.47,0,0,0,2.53,0c-.12,0,.46-.14,1.41-.6a15.81,15.81,0,0,0,3.42-2.28A12.26,12.26,0,0,0,98.13,155a16.44,16.44,0,0,0,1-1.54c.59-1,.93-1.74.93-1.75l.47-.87.52-1.07.31-.68.41-1a65.43,65.43,0,0,0,3.11-11.77c.86-4.7,2-10,3.4-15.39.68-2.7,1.37-5.45,2-8.24s1.35-5.78,2.11-8.68c1.52-5.8,3.19-11.69,5-17.38.9-2.84,1.84-5.68,2.83-8.43l1.48-4.07c.5-1.4,1.1-2.77,1.69-4.06a65.6,65.6,0,0,1,8.26-13.81,21.53,21.53,0,0,1,4.95-4.39,21.19,21.19,0,0,1,2.4-1.31"/><path class="cls-1" d="M115.89,98c0-.11,0-.15,0-.33a3.26,3.26,0,0,1,1.43-1.76c.72-.42,1.77-.41,3.11.68a1.11,1.11,0,0,1,.28.34l1.7,8.16,1.51,8,.81,4.58s.22,1.88.33,4.59c0,1.42,0,2.76,0,4.24v2.13a5.56,5.56,0,0,0,0,1.15c.17.27.46.3.72.37a5.05,5.05,0,0,0,.94.11,12.59,12.59,0,0,1,1.81.21c.9.22,1.08.54.84.75a6.27,6.27,0,0,1-1.77.78,10.3,10.3,0,0,1-1.94.48,3.07,3.07,0,0,1-2.78-.68c.06.09-.12,0-.35-.46a8.61,8.61,0,0,1-.64-2.19c-.27-1.27-.55-3-.81-4.69-.44-3.23-1.35-6.6-1.32-6.6l-.69-3.87-1.52-7.88Z"/><path class="cls-1" d="M96.73,59.76a.39.39,0,0,1-.08-.33c-.05-1.3.53-3.65,3.79-2.73a1.51,1.51,0,0,1,.39.21c.1.15,2,2.85,4.7,6.88,1.57,2.26,3.79,6.25,4.79,8.1l1.62,3c.43.79.62,1.22.63,1.22A37.4,37.4,0,0,1,114,80.56c.34,1.29.66,2.73,1,4.17l.24,1.12a7.41,7.41,0,0,1,.12,1.28l.07,2.06a13.22,13.22,0,0,0,.35,2.54,1.75,1.75,0,0,0,.71,1.15c.3.18.53.18.64.26a.26.26,0,0,1,0,.37,1.37,1.37,0,0,1-.89.41,2.07,2.07,0,0,1-1.57-.59,8.4,8.4,0,0,1-2-3.8,8.91,8.91,0,0,1-.5-1.84,6.59,6.59,0,0,0-.21-.79l-.38-1-.93-2.31a40.39,40.39,0,0,0-2.83-5.92L106,74.29c-1-1.8-3.08-5.57-4.59-7.73-2.63-4-4.55-6.66-4.64-6.8"/><path class="cls-1" d="M127.28,91.24A.5.5,0,0,1,127,91a2.84,2.84,0,0,1-.83-2.21c.11-.84.79-1.6,2.21-2.25a1.12,1.12,0,0,1,.39-.09,25.84,25.84,0,0,0,7.47,1,49,49,0,0,0,9.2-.86,40.65,40.65,0,0,0,9.47-2.84,10.64,10.64,0,0,0,3.67-2.62,14.08,14.08,0,0,0,2.52-4,12.7,12.7,0,0,0,1-4.66,7.14,7.14,0,0,0-.27-2.13,3.93,3.93,0,0,0-.9-1.56,11.65,11.65,0,0,0-8.75-3,15.43,15.43,0,0,0-4.94,1.08,9.16,9.16,0,0,0-3.6,2.87,21.78,21.78,0,0,0-2.57,4.59,53.13,53.13,0,0,0-2,5.14,50,50,0,0,0-2.27,10.46,56.11,56.11,0,0,0,1.54,19.54c.37,1.44.8,2.95,1.21,4.21A19.82,19.82,0,0,0,143.2,120c.37.43.76.84,1.15,1.22l.43.4a16.55,16.55,0,0,0,2.94,2.15,14.67,14.67,0,0,0,3.4,1.74,12.61,12.61,0,0,0,7.33.33,32.08,32.08,0,0,0,4.09-1.57c.8-.33,1.14-.31,1.12,0,0,.65-1.52,2.71-4.33,4.16a6.93,6.93,0,0,1-1.92.83,14.85,14.85,0,0,1-5.24.66,18.26,18.26,0,0,1-7.55-2.24s-.38-.23-1-.69c-.33-.23-.73-.52-1.17-.88l-.69-.58-.37-.33-.68-.66a24.39,24.39,0,0,1-4.86-6.88,27.05,27.05,0,0,1-1.59-4.35c-.42-1.46-.82-3-1.17-4.53A59.67,59.67,0,0,1,132,87.84a55.3,55.3,0,0,1,2.73-11.24A57.73,57.73,0,0,1,137,71.12a21.73,21.73,0,0,1,3.44-5.45,14.1,14.1,0,0,1,5.79-3.87,22.83,22.83,0,0,1,6.47-1.14,17.14,17.14,0,0,1,6.68,1.28A13.42,13.42,0,0,1,165.12,66a8.79,8.79,0,0,1,1.65,3.55,13,13,0,0,1,.28,3.53,18.3,18.3,0,0,1-1.57,6.35A19,19,0,0,1,162,84.78a16,16,0,0,1-5.22,3.6,46.44,46.44,0,0,1-10.54,3.14,53.9,53.9,0,0,1-10,.91,30.73,30.73,0,0,1-8.88-1.19"/><path class="cls-1" d="M159.75,68.32c-.05-.09-.06-.12,0-.29a4.15,4.15,0,0,1,.9-2c.56-.59,1.52-1,3.21-.22a1.37,1.37,0,0,1,.39.33,12.53,12.53,0,0,1,1,2.82,10,10,0,0,1,.15,3.41,10.37,10.37,0,0,1-1.41,4A15.49,15.49,0,0,1,161,80a24.63,24.63,0,0,1-3.19,2.39,38.24,38.24,0,0,1-4.31,2.38,46.16,46.16,0,0,1-4.4,1.51,62.68,62.68,0,0,1-8.46,1.83c-9.07,1.32-5.77-.68-.6-2.7-.29,0,2.84-1.09,5.9-2.43a58.67,58.67,0,0,0,6-3,31.71,31.71,0,0,0,3.21-1.8,21,21,0,0,0,2.52-1.89,10.49,10.49,0,0,0,2.07-2.42,5.59,5.59,0,0,0,.08-5.55"/><path class="cls-1" d="M132.47,92a.43.43,0,0,1,.08-.34c.56-1.22,2.18-3,4.63-.65a1.51,1.51,0,0,1,.25.35c0,.16.41,3.41,1.22,8.07A71.53,71.53,0,0,0,141,109.66l.22.57.28.68.54,1.31c.36.86.7,1.66,1,2.41a26.87,26.87,0,0,0,1.91,3.62,7.86,7.86,0,0,0,1.66,2c.46.36.82.58.8.57a18.71,18.71,0,0,0,3.39,2,19.09,19.09,0,0,0,7.42,1.92,15.83,15.83,0,0,0,4.23-.62c.83-.22,1.17-.18,1.12.17a3.53,3.53,0,0,1-1.42,1.62,10.06,10.06,0,0,1-3.77,1.59,7.28,7.28,0,0,1-2,.29,20.25,20.25,0,0,1-5.09-.43,23.82,23.82,0,0,1-5-1.64,17.54,17.54,0,0,1-2.2-1.19,12.32,12.32,0,0,1-3.31-3.57,32.29,32.29,0,0,1-2.22-4.18c-.37-.82-.73-1.67-1.09-2.55l-1.12-2.73a72.6,72.6,0,0,1-2.67-11.21c-.84-4.79-1.24-8.13-1.27-8.3"/><path class="cls-1" d="M194.41,61a.54.54,0,0,1,.12.38,2.79,2.79,0,0,1-.72,2.27c-.61.6-1.62.73-3.12.39a1.67,1.67,0,0,1-.35-.15,9,9,0,0,0-1.24-1.43,7.43,7.43,0,0,0-3.9-1.92,9.93,9.93,0,0,0-5.2.66,9.28,9.28,0,0,0-4.48,3.4,11.6,11.6,0,0,0-1.47,2.73,8.9,8.9,0,0,0-.46,3c0,.56,0,1.17,0,1.79a15.54,15.54,0,0,0,.15,1.72,8.35,8.35,0,0,0,1,2.91,14,14,0,0,0,4.9,4.67c2.13,1.37,4.54,2.63,6.92,4.2a23,23,0,0,1,6.44,6A42.15,42.15,0,0,1,197,98.78a37.8,37.8,0,0,1,3.47,14.56,16.07,16.07,0,0,1-1.42,7,11.08,11.08,0,0,1-2,2.9,13.82,13.82,0,0,1-1.11,1.07l-.31.27-.23.18a16.94,16.94,0,0,1-4.22,2.46,18.12,18.12,0,0,1-5,.91,19.22,19.22,0,0,1-9-1.84,11.69,11.69,0,0,1-4-2.75c-.59-.69-.6-1-.27-1.09.66-.12,2.7.78,5.25,1.27a24.18,24.18,0,0,0,5.87.36,16.31,16.31,0,0,0,4-.92,12.42,12.42,0,0,0,1.67-.77,7.41,7.41,0,0,0,.81-.41c.26-.13.57-.33.92-.55.16-.12.35-.24.54-.39l.28-.22.43-.36a7.6,7.6,0,0,0,1.24-1.39,7.25,7.25,0,0,0,.87-1.81,13.42,13.42,0,0,0,.53-5A35.45,35.45,0,0,0,192,99.94a33.9,33.9,0,0,0-3.5-6,20,20,0,0,0-5.24-4.5c-2.1-1.34-4.45-2.57-6.81-4.14a17.69,17.69,0,0,1-6.31-6.55,13.85,13.85,0,0,1-1.37-4.56c-.1-.81-.12-1.45-.16-2.12s0-1.38,0-2.11a13.17,13.17,0,0,1,.83-4.53,16.84,16.84,0,0,1,2.08-3.79,14.35,14.35,0,0,1,6.74-5.09,14.86,14.86,0,0,1,7.74-.9,12.41,12.41,0,0,1,6.5,3.18,13.84,13.84,0,0,1,1.91,2.2"/><path class="cls-1" d="M186,91.07a.37.37,0,0,1-.1-.28,4.17,4.17,0,0,1,.29-2.18c.36-.73,1.16-1.44,3-1.13a1.4,1.4,0,0,1,.46.19,24.35,24.35,0,0,1,4.73,7.83,43.81,43.81,0,0,1,2.79,11.73,28.07,28.07,0,0,1,0,6.35,26.72,26.72,0,0,1-1.12,5,12.19,12.19,0,0,1-2,3.71,9.27,9.27,0,0,1-1.15,1.2,11.09,11.09,0,0,1-1.39.92,16.11,16.11,0,0,1-3.46,1.31,18.77,18.77,0,0,1-9.18.12,10.53,10.53,0,0,1-4.42-2c-.69-.59-.75-.93-.43-1,.63-.22,2.76.35,5.33.29a22.05,22.05,0,0,0,5.78-.9,14.55,14.55,0,0,0,3.7-1.74,4.78,4.78,0,0,0,1.09-1,6.2,6.2,0,0,0,1.41-2.51,20.66,20.66,0,0,0,.89-4,22.79,22.79,0,0,0,0-5.18,38.53,38.53,0,0,0-2.48-10.46A19.43,19.43,0,0,0,186,91.07"/><path class="cls-1" d="M190.61,58.05a.52.52,0,0,1,.29.27,2.8,2.8,0,0,1,.51,2.32c-.23.82-1,1.45-2.51,1.9a1.14,1.14,0,0,1-.38,0,9.71,9.71,0,0,0-1.79-.63,6.93,6.93,0,0,0-4.25.32,7.85,7.85,0,0,0-1.72.94,12.06,12.06,0,0,0-2.7,2.68,11.73,11.73,0,0,0-1.93,3.16,14.67,14.67,0,0,0-1,3.51,10.67,10.67,0,0,0-.09,1.88l.09,2.09a19,19,0,0,0,.65,4.28c.24.77.32,1.11,0,1.12A2.91,2.91,0,0,1,174,80.52a13.15,13.15,0,0,1-1.6-3.65,9.89,9.89,0,0,1-.5-1.8,13.76,13.76,0,0,1-.24-5.3,17,17,0,0,1,1.54-5.2,14.73,14.73,0,0,1,1.34-2.24,16.84,16.84,0,0,1,3.36-3.18,13.84,13.84,0,0,1,2.71-1.51,11.9,11.9,0,0,1,7.27-.55,13.4,13.4,0,0,1,2.75,1"/><path class="cls-2" d="M124.18,189.65h0c-4,0-9.29-1.27-12.24-4.86-2.68-3.25-2.46-8.56-1.9-13.32,1-8.41,6.87-19.4,11.63-21.78a8.82,8.82,0,0,1,4-.93,12.75,12.75,0,0,1,6.46,2c4.13,2.94,5.27,7.93,5.8,12l.09.66c1.21,9.08,2.88,21.51-8.38,25.46a16.79,16.79,0,0,1-5.47.85m1.5-37.68a5.71,5.71,0,0,0-2.57.59c-3.52,1.76-9,11.43-9.88,19.28-.29,2.48-1,8.28,1.18,10.91,1.85,2.25,5.69,3.7,9.77,3.7h0a13.46,13.46,0,0,0,4.4-.68c8.8-3.08,7.45-13.14,6.26-22l-.08-.65c-.48-3.59-1.38-7.56-4.45-9.75a9.62,9.62,0,0,0-4.63-1.39"/><path class="cls-2" d="M144.44,187.6a4.92,4.92,0,0,1-2.53-.69c-8.22-4.8-5.09-35.52-5.06-35.83a1.6,1.6,0,0,1,3.19.35c-1.07,9.74-1.15,30,3.49,32.71.32.19,1.31.77,3.61-.88a1.61,1.61,0,0,1,2.24.37,1.59,1.59,0,0,1-.37,2.24,7.89,7.89,0,0,1-4.57,1.73"/><path class="cls-2" d="M157.71,186.45a1.59,1.59,0,0,1-1.6-1.53,72.27,72.27,0,0,0-1.6-10.34c-.43-2.1-.87-4.27-1.18-6.32-.92-6.16-3.12-11.52-6-14.72a1.61,1.61,0,0,1,2.38-2.16c4.56,5,6.24,12.42,6.84,16.41.29,2,.71,4,1.14,6.15l.21,1q.19-.74.39-1.53a47.72,47.72,0,0,0,1.07-12.5c0-.64,0-1.26,0-1.88a47.59,47.59,0,0,0-.47-6.57,12.27,12.27,0,0,1,.33-5.84c1.78-5.5,7.76-4.68,11.72-4.13l.72.09a1.61,1.61,0,0,1-.43,3.19l-.73-.1c-4.39-.61-7.34-.8-8.23,1.94a9.11,9.11,0,0,0-.21,4.34,49.92,49.92,0,0,1,.5,7l.06,1.84a51.36,51.36,0,0,1-1.16,13.38c-.25,1-.5,1.92-.74,2.8a27.85,27.85,0,0,0-1.32,7.89,1.6,1.6,0,0,1-1.56,1.6Z"/><path class="cls-2" d="M180.15,185a6.11,6.11,0,0,1-1-.07,1.61,1.61,0,0,1-1.34-1.54c-.11-3.74-.09-7.54-.08-11.57.05-11.84.1-24.08-3.09-34.5a1.61,1.61,0,1,1,3.07-.94c3.33,10.88,3.28,23.37,3.23,35.45,0,3.44,0,6.72,0,9.92.79-.07,1.77-.2,2.73-.33,1.7-.23,3.63-.49,5.51-.56,2.48-.09,3.6-.23,4.59-.35.57-.07,1.1-.13,1.78-.18a1.6,1.6,0,0,1,.23,3.2c-.62,0-1.1.11-1.62.17a46.94,46.94,0,0,1-4.86.37c-1.73.07-3.57.31-5.2.53a32,32,0,0,1-4,.4"/><path class="cls-2" d="M171,159.28a1.6,1.6,0,0,1-1-2.86c5.45-4.31,13.59-6.33,18-7.14a1.6,1.6,0,1,1,.59,3.15c-3.28.62-11.46,2.48-16.56,6.51a1.61,1.61,0,0,1-1,.34"/><path class="cls-2" d="M69.83,190.45c-1.17,0-2.34,0-3.51-.09-11-.56-22.28-5-26.45-7.8-18.37-12.42-27.28-32.75-23.8-54.39,1.09-6.82,3.59-16.24,7.33-22.24a.81.81,0,0,1,1.11-.26.82.82,0,0,1,.26,1.11c-3.62,5.8-6.05,15-7.12,21.64-3.37,21,5.28,40.75,23.13,52.81,3.11,2.11,13.89,6.93,25.62,7.54,16.29.82,32.21-4.55,32.88-4.78a.79.79,0,0,1,1,.5.8.8,0,0,1-.49,1,101.8,101.8,0,0,1-30,4.94"/><path class="cls-2" d="M37.25,180.46a.77.77,0,0,1-.59-.26,20.22,20.22,0,0,1-3.16-20.34.8.8,0,1,1,1.49.6,18.55,18.55,0,0,0,2.85,18.66.8.8,0,0,1-.59,1.34"/><path class="cls-2" d="M25.79,168.65a.9.9,0,0,1-.73-.39h0l0,0C21.22,162,13.61,151.42,9.3,151.09a1.92,1.92,0,0,0-1.72.74.8.8,0,1,1-1.22-1,3.57,3.57,0,0,1,3.06-1.3c5.91.46,15,14.64,16.92,17.79l0,.06h0l0,0h0a.86.86,0,0,1-.24,1.16.75.75,0,0,1-.38.1"/><path class="cls-2" d="M16.73,129.85a1,1,0,0,1-.32-.06.81.81,0,0,1-.41-1.06c.12-.28,3.11-7,9.52-9.13a.8.8,0,0,1,.5,1.53c-5.73,1.87-8.52,8.18-8.55,8.24a.81.81,0,0,1-.74.48"/><path class="cls-2" d="M19.68,125.66a.79.79,0,0,1-.58-.25.8.8,0,0,1-.18-.83,9.79,9.79,0,0,1,.91-7.08,3.26,3.26,0,0,1,2.68-1.6.8.8,0,0,1,.75.47c1.91,4.08-1.49,7.58-2.86,8.91l-.06,0-.11.1a.74.74,0,0,1-.55.23m2.35-8a1.83,1.83,0,0,0-.86.77,8,8,0,0,0-.89,4.68c1.3-1.5,2.39-3.4,1.75-5.45"/><path class="cls-2" d="M17.23,132.6a.8.8,0,0,1-.79-.74.31.31,0,0,1,0-.1c-.85-1.28-.3-3.1,1.62-5.43s3.83-2,6.24-1.56l.72.12a.83.83,0,0,1,.67.75c.26,4.42-5.33,6.71-8.38,7h-.07m4.57-6.53a3,3,0,0,0-2.51,1.29c-1.36,1.63-1.9,3-1.49,3.56,2.43-.4,5.89-2,6.25-4.56h0a13,13,0,0,0-2.21-.28"/><path class="cls-2" d="M26.93,122.12a15.26,15.26,0,0,1-2-.14.9.9,0,0,1-.9-.62.88.88,0,0,1,.24-.77c.42-.75,3.07-5.23,5.46-5.23.71,0,1.67.36,2.22,2.06a3.29,3.29,0,0,1-.3,3.07c-.79,1.08-2.37,1.63-4.69,1.63m-.76-1.63c.23,0,.49,0,.76,0,1.7,0,2.94-.35,3.39-1a1.79,1.79,0,0,0,.07-1.63c-.12-.35-.36-.94-.69-.94-.85,0-2.43,1.83-3.53,3.52"/><path class="cls-2" d="M3.11,153a3.75,3.75,0,0,1-1.58-.31A2.67,2.67,0,0,1,0,150.25a2.92,2.92,0,0,1,1.54-2.86c1.64-.85,4-.26,5.43.8a2.91,2.91,0,0,1,1.29,2.92.8.8,0,0,1-1,.61.45.45,0,0,1-.11,0A7.74,7.74,0,0,1,3.11,153m.25-4.43a2.47,2.47,0,0,0-1.09.23,1.28,1.28,0,0,0-.66,1.36c0,.72.33.95.59,1.07,1,.47,3.18-.16,4.24-1l.16-.1a2.45,2.45,0,0,0-.61-.69,4.58,4.58,0,0,0-2.63-.87"/><path class="cls-2" d="M5.77,156.74a.8.8,0,0,1-.75-.53c-.44-1.21.11-2.5,1.51-3.56,1.66-1.25,4.32-2,5.71-1l.12.11,0-.1a.79.79,0,0,1,1-.5.8.8,0,0,1,.51,1c-1.29,3.82-5.25,4.42-8.11,4.54Zm4.78-3.93a5.6,5.6,0,0,0-3.05,1.12,2.85,2.85,0,0,0-1,1.16c2.5-.2,4.12-.82,5.08-2a.79.79,0,0,1-.31-.14,1.28,1.28,0,0,0-.75-.17"/><path class="cls-2" d="M15,153.94h-.09a.81.81,0,0,1-.71-.89c0-.16,0-.32.05-.47a.8.8,0,0,1-1.39.38c-1.16-1.31-3.12-6.08-1.85-8.7a3,3,0,0,1,3.2-1.67.81.81,0,0,1,.71.52,21.11,21.11,0,0,1,.88,10.12.81.81,0,0,1-.8.71m-1.4-9.74a1.33,1.33,0,0,0-1.15.76c-.84,1.74.58,5.77,1.61,6.94a.77.77,0,0,1,.21.53,19.46,19.46,0,0,0-.67-8.23"/><path class="cls-2" d="M17.09,159.7A12.32,12.32,0,0,1,13,159c-1.33-.53-2.06-1.24-2.15-2.11s.4-1.57,1.45-2.27c2.57-1.7,4.3.3,5.56,1.76a11.31,11.31,0,0,0,1.25,1.31.8.8,0,0,1,.63.27.76.76,0,0,1,.12.19.79.79,0,0,1,.25.94.81.81,0,0,1-1,.44l-.11-.05a5.85,5.85,0,0,1-1.86.26m-2.88-4.15a1.88,1.88,0,0,0-1,.37c-.63.42-.75.7-.75.76s.24.43,1.15.78a10,10,0,0,0,3.68.63c-.21-.22-.42-.46-.62-.69-1-1.2-1.69-1.85-2.43-1.85"/><path class="cls-2" d="M22.67,166.19c-2.3,0-4.83-1-5.9-3.16a4,4,0,0,1-.29-3.42,2.25,2.25,0,0,1,1.82-1.15c2.27-.27,5.1,4.59,5.88,6a.8.8,0,0,1-.09,1.54,6.64,6.64,0,0,1-1.42.14m-4.13-6.14h0c-.47.06-.57.25-.6.32a2.47,2.47,0,0,0,.3,1.94,4.9,4.9,0,0,0,4.22,2.28c-1.1-1.94-3.13-4.54-3.88-4.54"/><path class="cls-2" d="M18.1,150.8a.8.8,0,0,1-.78-.61.93.93,0,0,1,0-.23.81.81,0,0,1-.15-.66c0-.18.07-.54.12-1,.31-3.36.81-7,2.77-7.83a2.72,2.72,0,0,1,2.83.73,3.36,3.36,0,0,1,1,3.51c-.64,2.72-3.62,5.63-5.61,6.1a.62.62,0,0,1-.19,0m2.73-8.91a.48.48,0,0,0-.18,0c-1.23.51-1.65,5-1.78,6.5,0,.13,0,.26,0,.38a8.64,8.64,0,0,0,3.51-4.49,1.78,1.78,0,0,0-.5-1.91,2,2,0,0,0-1-.51"/><path class="cls-2" d="M17.4,122.94a.81.81,0,0,1-.31-.06.8.8,0,0,1-.49-.62h-.15c-2-.19-3.56-3-4.13-5.52-.63-2.76-.1-4.95,1.42-5.86a2.44,2.44,0,0,1,3,.07c2.41,2.06,2.09,9.67,1.35,11.49a.79.79,0,0,1-.74.5m-2.09-11a1.58,1.58,0,0,0-.75.26c-.86.52-1.12,2.14-.67,4.13.54,2.42,1.87,4.2,2.71,4.28a1,1,0,0,1,.3.09c.35-2.46.19-7.43-1.15-8.58a.62.62,0,0,0-.44-.18"/><path class="cls-2" d="M32.83,167.29a.82.82,0,0,1-.68-.38l-.27-.41c-4.48-6.86-6-11-4.82-12.92.38-.61,1.19-1.29,3-1.1A3.49,3.49,0,0,1,32.56,154c1.93,2.62,1.9,7.86,1.45,10.08a.82.82,0,0,1-.94.63.8.8,0,0,1-.63-.95c.4-2,.36-6.72-1.17-8.81a2,2,0,0,0-1.4-.9c-.76-.08-1.25,0-1.44.35-.28.47-.78,2.66,4.8,11.2l.28.44a.81.81,0,0,1-.25,1.11.85.85,0,0,1-.43.12"/><path class="cls-2" d="M33,170a.8.8,0,0,1-.72-1.15.8.8,0,0,1,0-.27l0-.22c.32-3,.89-6.53,2.53-7.61a2,2,0,0,1,1.72-.25,2.21,2.21,0,0,1,1.66,1.76c.46,2.67-3.81,6.92-4.72,7.59A.85.85,0,0,1,33,170m2.93-8a.37.37,0,0,0-.22.08c-.49.32-1.15,1.47-1.65,5,1.29-1.45,2.74-3.48,2.56-4.53,0-.11-.06-.33-.55-.48l-.14,0"/><path class="cls-2" d="M25.45,167.69a.76.76,0,0,1-.53-.2c-2.38-2.09-3.11-3.48-3.39-6.47-.12-1.26-.33-5.41,2.18-6a2.12,2.12,0,0,1,1.86.52c1.73,1.48,2.63,5.65,2.56,7.09a6,6,0,0,1-1.88,4.2.8.8,0,0,1-.8.81m-1.32-11.06h-.08c-.81.17-1.11,2.33-.92,4.23a6.33,6.33,0,0,0,2.12,4.74,4.24,4.24,0,0,0,1.28-3c0-1.11-.78-4.76-2-5.79a.64.64,0,0,0-.4-.19"/><path class="cls-2" d="M23.58,174a6.61,6.61,0,0,1-2.5-.47,3.59,3.59,0,0,1-2.22-2.19,2.31,2.31,0,0,1,.18-2.13c.62-.88,1.88-1,3-1.06a10.1,10.1,0,0,1,5.83,1.89.81.81,0,0,1,.67.45l.15.11a.8.8,0,1,1-.94,1.3l-.14-.1c-.08.09-.17.22-.3.4A4.06,4.06,0,0,1,26,173.51a5.32,5.32,0,0,1-2.41.51m-1.29-4.25h-.18c-1.32,0-1.67.26-1.76.39s-.07.37,0,.71a2.15,2.15,0,0,0,1.3,1.2,4.77,4.77,0,0,0,3.54,0,2.42,2.42,0,0,0,.79-.8.74.74,0,0,1,.13-.41,7.82,7.82,0,0,0-3.86-1.11"/><path class="cls-2" d="M30.53,179.44a6.28,6.28,0,0,1-3.13-.93,3.9,3.9,0,0,1-2-4.42.8.8,0,0,1,.77-.58h0a12.8,12.8,0,0,1,3.08.52,15,15,0,0,0,2.39.46l.12-.07a.8.8,0,0,1,1.07.37c1.1,2.28.35,3.45-.19,3.94a3.1,3.1,0,0,1-2.11.71m-3.67-4.28a2.63,2.63,0,0,0,1.39,2c1.27.79,2.8.86,3.31.39.35-.31.25-.93.07-1.44a13.94,13.94,0,0,1-2.78-.51,16.44,16.44,0,0,0-2-.42"/><path class="cls-2" d="M36.33,179.23a.8.8,0,0,1-.24-1.57,2.67,2.67,0,0,0,1.73-1.92,3.9,3.9,0,0,0-.7-3.5c-.6-.69-1.14-1-1.43-.91s-.39.32-.49.56c-.24.52.16,1.74.45,2.63a9.69,9.69,0,0,1,.48,1.91.8.8,0,1,1-1.6.14,7.83,7.83,0,0,0-.41-1.55c-.41-1.27-.87-2.7-.39-3.78a2.23,2.23,0,0,1,1.72-1.49,3.33,3.33,0,0,1,2.87,1.42,5.47,5.47,0,0,1,1,5,4.2,4.2,0,0,1-2.8,3,.59.59,0,0,1-.23,0"/><path class="cls-2" d="M48.89,186.67h-.08a.8.8,0,0,1-.72-.71.38.38,0,0,1-.13-.06c-.33-.18-.75-.38-1.21-.6-1.36-.65-2.9-1.38-3.56-2.35a3.76,3.76,0,0,1-.33-3.61,3,3,0,0,1,2.49-1.77,3,3,0,0,1,2.49.88c2,2,1.95,6.41,1.85,7.5a.82.82,0,0,1-.8.72m-3.19-7.52-.18,0a1.42,1.42,0,0,0-1.2.84,2.14,2.14,0,0,0,.19,2,9.18,9.18,0,0,0,2.93,1.81c.23.11.46.21.66.32-.09-1.63-.48-3.67-1.39-4.58a1.36,1.36,0,0,0-1-.44"/><path class="cls-2" d="M43,188c-3.34,0-5.06-.81-5.09-2.42a2.13,2.13,0,0,1,.62-1.59,5.45,5.45,0,0,1,3.77-1.12,8.25,8.25,0,0,1,3.54.66c.7.4,1.45.76,2.2,1.1s1.44.68,2.09,1a.82.82,0,0,1,.41.77.8.8,0,0,1-.52.69,29.32,29.32,0,0,1-7,.87m-.7-3.53a4.14,4.14,0,0,0-2.62.64.59.59,0,0,0-.17.43c0,.3.75.85,3.49.85a30.7,30.7,0,0,0,4.28-.34c-.76-.35-1.52-.72-2.23-1.12a7.15,7.15,0,0,0-2.75-.46"/><path class="cls-2" d="M77.75,189.92a.74.74,0,0,1-.48-.18l-.07-.06a.79.79,0,0,1-.52-.09c-.58-.32-2.1-1.11-3.14-1.56-1.42-.6-2.21-1.33-2.41-2.22a2.55,2.55,0,0,1,.77-2.28,2.38,2.38,0,0,1,2.16-1c1.59.25,2.55,2.39,3.39,4.29a9.45,9.45,0,0,0,.84,1.64.83.83,0,0,1,.07,1.13.82.82,0,0,1-.61.29m-4-5.77c-.23,0-.52.28-.67.46s-.47.57-.41.85.25.57,1.48,1.1c.54.23,1.18.53,1.76.82-.52-1.15-1.41-3.11-2.12-3.22h0"/><path class="cls-2" d="M73,196.6a3,3,0,0,1-1.87-.69c-1.69-1.31-2.08-3.06-1-4.67,1.31-2,4.8-3.45,7.17-2.39a.8.8,0,0,1,1.4.7c-.28,1.14-2,5.92-4.72,6.88a2.89,2.89,0,0,1-.95.17m2.46-6.51a5.27,5.27,0,0,0-4,2c-.58.9-.36,1.73.67,2.53a1.32,1.32,0,0,0,1.31.28c1.29-.46,2.62-2.79,3.3-4.56a2.87,2.87,0,0,0-1.26-.27"/><path class="cls-2" d="M23.64,107.4a.7.7,0,0,1-.31-.07c-1.92-.41-2.91-2.34-3-4.12-.15-2.12.84-3.82,2.52-4.33a.79.79,0,0,1,.67.09.81.81,0,0,1,.36.58,5.16,5.16,0,0,0,.64,1.64,5.17,5.17,0,0,1,.82,2.67,4.37,4.37,0,0,1-.17,1.22,2.6,2.6,0,0,0-.13.73.8.8,0,0,1-.35.6c-.12.19-.24.46-.28.52h0a.83.83,0,0,1-.73.46m-1.09-6.54a3,3,0,0,0-.66,2.24,3.08,3.08,0,0,0,1.36,2.51,2,2,0,0,1,.19-.28,3.5,3.5,0,0,1,.15-.73,2.31,2.31,0,0,0,.11-.8,3.88,3.88,0,0,0-.64-1.86c-.17-.34-.36-.69-.51-1.08"/><path class="cls-2" d="M24.7,107.3a1.88,1.88,0,0,1-1.06-.28.79.79,0,0,1-.22-1.11.58.58,0,0,1,.2-.21c.15-1.1.6-3.47,1.8-4.41a1.86,1.86,0,0,1,1.43-.42,1.35,1.35,0,0,1,1,.65,5.59,5.59,0,0,1,.58,3.45,3.29,3.29,0,0,1-2.16,2,4.87,4.87,0,0,1-1.55.31m1.84-4.83-.13.08a5.78,5.78,0,0,0-1.15,3.07,4.21,4.21,0,0,0,.76-.28,1.58,1.58,0,0,0,.84-.79,4.49,4.49,0,0,0-.32-2.08"/><path class="cls-2" d="M16.71,132.81a.92.92,0,0,1-.28-.05,9.5,9.5,0,0,1-3.83-3.09c-.37-.52-2.14-3.67-1.17-5.2a1.82,1.82,0,0,1,1.86-1c1.8.29,3.17,4.13,3.93,6.92a.76.76,0,0,1,.26.15.8.8,0,0,1,.07,1.13l-.09.11a.72.72,0,0,1,0,.56.8.8,0,0,1-.75.52M13,125a3.34,3.34,0,0,0-.24.32c-.26.4.41,2.41,1.12,3.41a8.78,8.78,0,0,0,1.66,1.68c-.89-3.1-2-5.29-2.54-5.41"/><path class="cls-2" d="M93.27,187a4.62,4.62,0,0,1-3.67-1.53c-.34-.45-1.29-2,.84-4,2.61-2.34,5.83.51,7.55,2l.64.55a.81.81,0,0,1,.1,1.13.8.8,0,0,1-1.13.1c-.2-.16-.43-.36-.68-.59-2-1.74-4-3.32-5.4-2-.8.71-1,1.32-.64,1.79a3.73,3.73,0,0,0,4.39.37.8.8,0,1,1,.87,1.34,5.26,5.26,0,0,1-2.87.8"/><path class="cls-2" d="M86.52,196a3.58,3.58,0,0,1-.72-.07c-2.24-.37-4.81-2.43-4.9-4.79a3.37,3.37,0,0,1,.94-2.63c1.68-1.71,5.12-1.63,7.39-1.57h.27a.8.8,0,0,1,.79.82.79.79,0,0,1-.83.78h-.27c-1.88,0-5-.12-6.2,1.09a1.79,1.79,0,0,0-.49,1.44c.06,1.5,2,3,3.56,3.28,2.09.35,3.2-2,4.39-5.17a18.7,18.7,0,0,1,1.15-2.64.8.8,0,1,1,1.38.81,18.85,18.85,0,0,0-1,2.4c-1,2.67-2.36,6.25-5.43,6.25"/><path class="cls-2" d="M66.66,190.49c-3.06,0-6.57-2.3-8.31-4.23-2.09-2.31-5.06-9-3.81-12.46a.8.8,0,1,1,1.51.55c-.93,2.57,1.5,8.63,3.49,10.84,1.81,2,5.82,4.42,8.32,3.5a.81.81,0,0,1,1,.47.8.8,0,0,1-.48,1,4.92,4.92,0,0,1-1.75.3"/><path class="cls-2" d="M54.5,176.25a.81.81,0,0,1-.74-.48c-.06-.14-.24-.42-.47-.79-1.45-2.3-2.79-4.68-2-6.14a2,2,0,0,1,1.79-1,2.15,2.15,0,0,1,1.91.94c1.26,1.64,1.35,5.22.91,6.53a.81.81,0,0,1-.67.55.78.78,0,0,1-.69.4m-1.32-6.83h0c-.09,0-.39,0-.45.14-.26.5.35,1.94,1.8,4.29a7.34,7.34,0,0,0-.8-4.11c-.22-.29-.4-.33-.5-.33"/><path class="cls-2" d="M58.08,185.36a.85.85,0,0,1-.4-.1l-.4-.23c-2.11-1.19-6.05-3.4-5.37-6.44a.82.82,0,0,1,.63-.61c1.89-.36,4.25,2.31,4.84,3.39a.8.8,0,0,1-.32,1.09.81.81,0,0,1-1.09-.32,7.37,7.37,0,0,0-2.45-2.39c.47,1.59,3.15,3.1,4.55,3.88l.41.23a.8.8,0,0,1-.4,1.5"/><path class="cls-2" d="M61.59,189a.79.79,0,0,1-.42-.12.8.8,0,0,1-.27-1.1c.57-.92.7-5.88,0-6.48-.44-.13-.53,0-.57.07-.62.9.2,4.13.68,4.72a.8.8,0,1,1-1.26,1c-.78-1-1.89-5-.75-6.63a2,2,0,0,1,2.44-.67A1.88,1.88,0,0,1,62.57,181c.71,1.9.42,6.39-.3,7.57a.82.82,0,0,1-.68.38"/><path class="cls-2" d="M60.36,193c-2.06,0-2.48-.93-2.54-1.5-.15-1.36,1.61-2.77,3.22-3.07a.8.8,0,1,1,.3,1.58,2.81,2.81,0,0,0-1.92,1.29,4.79,4.79,0,0,0,.92.09h.22c2.38-.09,4.21-.47,5.41-2a.8.8,0,1,1,1.28,1c-1.68,2.21-4.29,2.59-6.63,2.68h-.26"/></svg>